<svg width="200" height="300" viewBox="0 0 200 300" xmlns="http://www.w3.org/2000/svg">
  <!-- Bolhas saindo do frasco -->
  <circle cx="100" cy="30" r="8" fill="none" stroke="#4a90e2" stroke-width="2" opacity="0.7"/>
  <circle cx="85" cy="45" r="6" fill="none" stroke="#4a90e2" stroke-width="2" opacity="0.6"/>
  <circle cx="115" cy="50" r="5" fill="none" stroke="#4a90e2" stroke-width="2" opacity="0.5"/>
  <circle cx="95" cy="65" r="4" fill="none" stroke="#4a90e2" stroke-width="2" opacity="0.4"/>
  
  <!-- Gargalo do frasco -->
  <rect x="85" y="80" width="30" height="60" fill="none" stroke="#4a90e2" stroke-width="2" rx="2"/>
  
  <!-- Corpo principal do frasco -->
  <path d="M 70 140 L 70 220 Q 70 240 90 240 L 110 240 Q 130 240 130 220 L 130 140 Z" 
        fill="none" stroke="#4a90e2" stroke-width="2"/>
  
  <!-- Base do frasco -->
  <ellipse cx="100" cy="240" rx="30" ry="8" fill="none" stroke="#4a90e2" stroke-width="2"/>
  
  <!-- Líquido dentro do frasco -->
  <path d="M 75 200 Q 75 220 90 220 L 110 220 Q 125 220 125 200 L 125 180 Q 120 175 100 175 Q 80 175 75 180 Z" 
        fill="#4a90e2" opacity="0.3" stroke="#4a90e2" stroke-width="1"/>
  
  <!-- Bolhas dentro do líquido -->
  <circle cx="90" cy="200" r="3" fill="none" stroke="#4a90e2" stroke-width="1" opacity="0.8"/>
  <circle cx="110" cy="195" r="2" fill="none" stroke="#4a90e2" stroke-width="1" opacity="0.7"/>
  <circle cx="100" cy="210" r="2.5" fill="none" stroke="#4a90e2" stroke-width="1" opacity="0.6"/>
  <circle cx="95" cy="185" r="1.5" fill="none" stroke="#4a90e2" stroke-width="1" opacity="0.5"/>
  <circle cx="115" cy="205" r="1.8" fill="none" stroke="#4a90e2" stroke-width="1" opacity="0.4"/>
  
  <!-- Bolhas no meio do frasco -->
  <circle cx="100" cy="160" r="4" fill="none" stroke="#4a90e2" stroke-width="1" opacity="0.6"/>
  <circle cx="90" cy="150" r="2" fill="none" stroke="#4a90e2" stroke-width="1" opacity="0.5"/>
  <circle cx="110" cy="155" r="3" fill="none" stroke="#4a90e2" stroke-width="1" opacity="0.4"/>
  
  <!-- Bolhas no gargalo -->
  <circle cx="100" cy="120" r="2" fill="none" stroke="#4a90e2" stroke-width="1" opacity="0.7"/>
  <circle cx="95" cy="110" r="1.5" fill="none" stroke="#4a90e2" stroke-width="1" opacity="0.6"/>
  <circle cx="105" cy="100" r="1" fill="none" stroke="#4a90e2" stroke-width="1" opacity="0.5"/>
</svg>